<svg viewBox="0 0 24 24" fill="currentColor"><path d="M12 .5a12 12 0 0 0-3.79 23.4c.6.11.82-.26.82-.58v-2.02c-3.34.73-4.04-1.61-4.04-1.61-.55-1.41-1.35-1.78-1.35-1.78-1.1-.75.08-.73.08-.73 1.22.09 1.86 1.25 1.86 1.25 1.08 1.85 2.83 1.31 3.52 1 .11-.78.42-1.31.76-1.61-2.66-.3-5.46-1.33-5.46-5.93 0-1.31.47-2.38 1.24-3.22-.12-.31-.54-1.56.12-3.25 0 0 1.01-.32 3.3 1.23a11.5 11.5 0 0 1 6 0c2.28-1.55 3.29-1.23 3.29-1.23.67 1.69.25 2.94.12 3.25.77.84 1.23 1.91 1.23 3.22 0 4.61-2.8 5.62-5.47 5.92.43.37.81 1.1.81 2.22v3.29c0 .32.21.7.82.58A12 12 0 0 0 12 .5z"/></svg>
